<svg width="85" height="85" viewBox="0 0 85 85" fill="none" xmlns="http://www.w3.org/2000/svg">
  <style type="text/css" >
      <![CDATA[
        circle {
          animation: show 1s linear;
        }
        @keyframes show {
          from {
            opacity: 0;
          }
          to {
            opacity 1;
          }
        }
      ]]>
  </style>
<circle cx="42.5" cy="42.5" r="42.5" fill="white"/>
<path d="M22.2932 27.485C22.9132 27.485 23.4332 27.565 23.8532 27.725C24.2832 27.885 24.7182 28.145 25.1582 28.505L24.3782 29.42C23.7482 28.91 23.0832 28.655 22.3832 28.655C21.5232 28.655 20.8282 28.985 20.2982 29.645C19.7782 30.305 19.5182 31.365 19.5182 32.825C19.5182 34.245 19.7782 35.295 20.2982 35.975C20.8182 36.645 21.5082 36.98 22.3682 36.98C22.8082 36.98 23.1932 36.905 23.5232 36.755C23.8532 36.605 24.2032 36.395 24.5732 36.125L25.2782 37.025C24.9582 37.355 24.5482 37.63 24.0482 37.85C23.5482 38.07 22.9732 38.18 22.3232 38.18C21.4832 38.18 20.7332 37.975 20.0732 37.565C19.4232 37.145 18.9132 36.535 18.5432 35.735C18.1832 34.925 18.0032 33.955 18.0032 32.825C18.0032 31.695 18.1932 30.73 18.5732 29.93C18.9532 29.12 19.4682 28.51 20.1182 28.1C20.7682 27.69 21.4932 27.485 22.2932 27.485ZM28.4253 38.18C27.9153 38.18 27.5103 38.03 27.2103 37.73C26.9203 37.42 26.7753 36.99 26.7753 36.44V26.915L28.1553 26.75V36.41C28.1553 36.63 28.1903 36.79 28.2603 36.89C28.3403 36.99 28.4703 37.04 28.6503 37.04C28.8403 37.04 29.0103 37.01 29.1603 36.95L29.5203 37.91C29.1903 38.09 28.8253 38.18 28.4253 38.18ZM32.6248 30.095V38H31.2448V30.095H32.6248ZM31.9198 26.3C32.2098 26.3 32.4448 26.39 32.6248 26.57C32.8048 26.75 32.8948 26.975 32.8948 27.245C32.8948 27.515 32.8048 27.74 32.6248 27.92C32.4448 28.09 32.2098 28.175 31.9198 28.175C31.6398 28.175 31.4098 28.09 31.2298 27.92C31.0498 27.74 30.9598 27.515 30.9598 27.245C30.9598 26.975 31.0498 26.75 31.2298 26.57C31.4098 26.39 31.6398 26.3 31.9198 26.3ZM38.3582 29.915C38.8282 29.915 39.2582 29.985 39.6482 30.125C40.0382 30.255 40.4132 30.47 40.7732 30.77L40.1132 31.64C39.8332 31.44 39.5582 31.295 39.2882 31.205C39.0282 31.105 38.7382 31.055 38.4182 31.055C37.7782 31.055 37.2782 31.31 36.9182 31.82C36.5682 32.33 36.3932 33.085 36.3932 34.085C36.3932 35.085 36.5682 35.825 36.9182 36.305C37.2682 36.775 37.7682 37.01 38.4182 37.01C38.7282 37.01 39.0132 36.965 39.2732 36.875C39.5332 36.775 39.8232 36.62 40.1432 36.41L40.7732 37.31C40.0532 37.89 39.2482 38.18 38.3582 38.18C37.2882 38.18 36.4432 37.82 35.8232 37.1C35.2132 36.38 34.9082 35.385 34.9082 34.115C34.9082 33.275 35.0482 32.54 35.3282 31.91C35.6082 31.28 36.0032 30.79 36.5132 30.44C37.0332 30.09 37.6482 29.915 38.3582 29.915ZM44.0213 26.75V38H42.6413V26.915L44.0213 26.75ZM48.5663 30.095L45.6563 33.59L48.8963 38H47.2463L44.1113 33.68L47.0213 30.095H48.5663ZM58.2768 37.64C57.7568 38 57.1668 38.18 56.5068 38.18C55.8368 38.18 55.3118 37.99 54.9318 37.61C54.5618 37.22 54.3768 36.66 54.3768 35.93V31.16H52.9968V30.095H54.3768V28.31L55.7568 28.145V30.095H57.6318L57.4818 31.16H55.7568V35.87C55.7568 36.28 55.8268 36.58 55.9668 36.77C56.1168 36.95 56.3618 37.04 56.7018 37.04C57.0118 37.04 57.3618 36.935 57.7518 36.725L58.2768 37.64ZM62.457 29.915C63.567 29.915 64.427 30.285 65.037 31.025C65.657 31.765 65.967 32.77 65.967 34.04C65.967 34.86 65.827 35.585 65.547 36.215C65.267 36.835 64.862 37.32 64.332 37.67C63.802 38.01 63.172 38.18 62.442 38.18C61.332 38.18 60.467 37.81 59.847 37.07C59.227 36.33 58.917 35.325 58.917 34.055C58.917 33.235 59.057 32.515 59.337 31.895C59.617 31.265 60.022 30.78 60.552 30.44C61.082 30.09 61.717 29.915 62.457 29.915ZM62.457 31.025C61.087 31.025 60.402 32.035 60.402 34.055C60.402 36.065 61.082 37.07 62.442 37.07C63.802 37.07 64.482 36.06 64.482 34.04C64.482 32.03 63.807 31.025 62.457 31.025ZM30.3748 47.915C30.8448 47.915 31.2748 47.985 31.6648 48.125C32.0548 48.255 32.4298 48.47 32.7898 48.77L32.1298 49.64C31.8498 49.44 31.5748 49.295 31.3048 49.205C31.0448 49.105 30.7548 49.055 30.4348 49.055C29.7948 49.055 29.2948 49.31 28.9348 49.82C28.5848 50.33 28.4098 51.085 28.4098 52.085C28.4098 53.085 28.5848 53.825 28.9348 54.305C29.2848 54.775 29.7848 55.01 30.4348 55.01C30.7448 55.01 31.0298 54.965 31.2898 54.875C31.5498 54.775 31.8398 54.62 32.1598 54.41L32.7898 55.31C32.0698 55.89 31.2648 56.18 30.3748 56.18C29.3048 56.18 28.4598 55.82 27.8398 55.1C27.2298 54.38 26.9248 53.385 26.9248 52.115C26.9248 51.275 27.0648 50.54 27.3448 49.91C27.6248 49.28 28.0198 48.79 28.5298 48.44C29.0498 48.09 29.6648 47.915 30.3748 47.915ZM37.3349 47.915C38.4449 47.915 39.3049 48.285 39.9149 49.025C40.5349 49.765 40.8449 50.77 40.8449 52.04C40.8449 52.86 40.7049 53.585 40.4249 54.215C40.1449 54.835 39.7399 55.32 39.2099 55.67C38.6799 56.01 38.0499 56.18 37.3199 56.18C36.2099 56.18 35.3449 55.81 34.7249 55.07C34.1049 54.33 33.7949 53.325 33.7949 52.055C33.7949 51.235 33.9349 50.515 34.2149 49.895C34.4949 49.265 34.8999 48.78 35.4299 48.44C35.9599 48.09 36.5949 47.915 37.3349 47.915ZM37.3349 49.025C35.9649 49.025 35.2799 50.035 35.2799 52.055C35.2799 54.065 35.9599 55.07 37.3199 55.07C38.6799 55.07 39.3599 54.06 39.3599 52.04C39.3599 50.03 38.6849 49.025 37.3349 49.025ZM46.7547 47.915C47.7647 47.915 48.5047 48.275 48.9747 48.995C49.4447 49.715 49.6797 50.73 49.6797 52.04C49.6797 53.28 49.4097 54.28 48.8697 55.04C48.3297 55.8 47.5647 56.18 46.5747 56.18C45.6947 56.18 45.0047 55.88 44.5047 55.28V59.03L43.1247 59.195V48.095H44.3097L44.4147 49.16C44.7047 48.76 45.0547 48.455 45.4647 48.245C45.8747 48.025 46.3047 47.915 46.7547 47.915ZM46.2447 55.055C47.5447 55.055 48.1947 54.05 48.1947 52.04C48.1947 50.02 47.5997 49.01 46.4097 49.01C46.0197 49.01 45.6647 49.125 45.3447 49.355C45.0247 49.585 44.7447 49.88 44.5047 50.24V54.095C44.7047 54.405 44.9547 54.645 45.2547 54.815C45.5547 54.975 45.8847 55.055 46.2447 55.055ZM55.1374 56.045C54.8274 56.965 54.3924 57.69 53.8324 58.22C53.2824 58.76 52.4924 59.085 51.4624 59.195L51.3124 58.115C51.8324 58.025 52.2474 57.895 52.5574 57.725C52.8674 57.555 53.1124 57.335 53.2924 57.065C53.4824 56.805 53.6574 56.45 53.8174 56H53.3524L50.6974 48.095H52.1674L54.2824 54.995L56.3524 48.095H57.7774L55.1374 56.045Z" fill="#1E1E1E"/>
</svg>
